<svg width="19" height="20" viewBox="0 0 19 20" fill="none" xmlns="http://www.w3.org/2000/svg">
<path d="M16.2671 6.21991C16.3448 6.35558 16.3167 6.52285 16.2095 6.62755H16.2102L14.691 8.11932C14.732 8.41978 14.7547 8.72706 14.7547 9.03929C14.7547 9.35152 14.732 9.6588 14.691 9.95988L16.2102 11.451H16.2095C16.316 11.5557 16.3442 11.7236 16.2671 11.8593L14.6169 14.7592C14.5563 14.8664 14.4456 14.9259 14.3323 14.9259C14.3017 14.9259 14.2711 14.9215 14.2411 14.9128L12.2085 14.3231C11.7323 14.6997 11.2053 15.0113 10.6379 15.2449L10.1256 17.3252H10.125C10.0889 17.4708 9.96034 17.5792 9.80548 17.5792H6.50644C6.35159 17.5792 6.22306 17.4708 6.18695 17.3258L5.67465 15.2455C5.10787 15.0113 4.58027 14.7003 4.10469 14.3237L2.07141 14.9141C2.04142 14.9215 2.01081 14.9265 1.98021 14.9265C1.86637 14.9265 1.75619 14.867 1.69499 14.7598L0.0448545 11.8587C-0.0322659 11.7224 -0.00411086 11.5551 0.102389 11.451L1.62154 9.95926C1.58053 9.65818 1.55788 9.3509 1.55788 9.03867C1.55788 8.72644 1.58053 8.41916 1.62154 8.1187L0.101165 6.62755C-0.00472293 6.52223 -0.0334901 6.35558 0.0436304 6.21929L1.69437 3.32C1.75497 3.21282 1.86575 3.15335 1.9796 3.15335C2.00959 3.15335 2.04019 3.15769 2.0708 3.16636L4.10408 3.75551C4.57966 3.37947 5.10726 3.06786 5.67403 2.83368L6.18633 0.754618C6.22245 0.609033 6.35098 0.5 6.50583 0.5H9.80487C9.95973 0.5 10.0883 0.609033 10.1244 0.753998H10.125L10.6373 2.83368C11.2041 3.06786 11.7317 3.37947 12.2078 3.75551L14.2405 3.16574C14.2699 3.15769 14.3005 3.15335 14.3317 3.15335C14.4456 3.15335 14.5557 3.21282 14.6163 3.32L16.2665 6.21991H16.2671ZM15.5669 6.32771L14.1744 3.88065L12.389 4.39918C12.3296 4.41591 12.2684 4.42458 12.2078 4.42458C12.0628 4.42458 11.919 4.37564 11.8014 4.28271C11.3693 3.94074 10.8937 3.66197 10.3888 3.45319C10.1941 3.37328 10.0485 3.20229 9.99767 2.99538L9.54781 1.16907H6.76351L6.31364 2.99538C6.26223 3.20291 6.11717 3.37266 5.92192 3.45319C5.41697 3.66135 4.942 3.94074 4.50927 4.28271C4.39237 4.37564 4.24914 4.42396 4.10347 4.42396C4.04288 4.42396 3.98167 4.41529 3.9223 4.39856L2.1369 3.88003L0.745671 6.32833L2.07998 7.63796C2.23116 7.78665 2.30338 7.99914 2.27461 8.21039C2.23605 8.49165 2.21708 8.77042 2.21708 9.03929C2.21708 9.30816 2.23667 9.58755 2.27461 9.86819C2.30338 10.0801 2.23116 10.2926 2.07998 10.4412L0.745671 11.7503L2.13812 14.1973L3.92352 13.6788C3.98289 13.6614 4.0441 13.6528 4.10469 13.6528C4.24975 13.6528 4.39298 13.7017 4.51049 13.7946C4.94261 14.1366 5.41819 14.4154 5.92314 14.6242C6.11778 14.7041 6.26345 14.8744 6.31487 15.082L6.76474 16.9077H9.54903L9.9989 15.0813C10.0497 14.8738 10.1954 14.7041 10.39 14.6235C10.895 14.4148 11.3705 14.136 11.8027 13.794C11.9202 13.7011 12.0634 13.6521 12.2085 13.6521C12.2691 13.6521 12.3303 13.6614 12.3902 13.6782L14.175 14.1961L15.5675 11.749L14.2332 10.44C14.082 10.2913 14.0098 10.0788 14.0385 9.86757C14.0771 9.58632 14.0961 9.30754 14.0961 9.03867C14.0961 8.7698 14.0765 8.49103 14.0385 8.20977C14.0098 7.99852 14.0826 7.78541 14.2332 7.63735L15.5675 6.32771H15.5669Z" fill="white"/>
<path d="M14.175 3.8805L15.5674 6.32756L14.2331 7.6372C14.0819 7.78588 14.0097 7.99837 14.0385 8.20962C14.077 8.49088 14.096 8.76966 14.096 9.03852C14.096 9.30739 14.0764 9.58679 14.0385 9.86742C14.0097 10.0793 14.0825 10.2918 14.2331 10.4398L15.5674 11.7489L14.175 14.1959L12.3902 13.678C12.3308 13.6607 12.2696 13.652 12.2084 13.652C12.0633 13.652 11.9201 13.7009 11.8026 13.7939C11.3705 14.1364 10.8949 14.4152 10.3899 14.6234C10.1953 14.7033 10.0496 14.8737 9.99883 15.0812L9.54896 16.9075H6.76467L6.3148 15.0818C6.26339 14.8743 6.11833 14.7039 5.92308 14.624C5.41812 14.4152 4.94255 14.1364 4.51043 13.7945C4.39352 13.7016 4.2503 13.6526 4.10463 13.6526C4.04403 13.6526 3.98283 13.6613 3.92346 13.6786L2.13806 14.1972L0.745605 11.7501L2.07991 10.4411C2.23109 10.2924 2.30332 10.0799 2.27455 9.86804C2.23599 9.5874 2.21701 9.30863 2.21701 9.03914C2.21701 8.76966 2.2366 8.4915 2.27455 8.21024C2.30332 7.99899 2.23109 7.78588 2.07991 7.63782L0.745605 6.32818L2.13806 3.88112L3.92346 4.39965C3.98283 4.417 4.04403 4.42505 4.10463 4.42505C4.24969 4.42505 4.39291 4.37673 4.51043 4.2838C4.94316 3.94183 5.41812 3.66244 5.92308 3.45428C6.11833 3.37375 6.26339 3.20338 6.3148 2.99647L6.76467 1.17016H9.54896L9.99883 2.99647C10.0502 3.20338 10.1953 3.37375 10.3899 3.45428C10.8955 3.66306 11.3705 3.94183 11.8026 4.2838C11.9201 4.37673 12.0633 4.42567 12.209 4.42567C12.2696 4.42567 12.3308 4.417 12.3902 4.40027L14.1756 3.88174L14.175 3.8805ZM11.5474 9.03852C11.5474 7.18929 10.0662 5.69008 8.23914 5.69008C6.41212 5.69008 4.93092 7.18929 4.93092 9.03852C4.93092 10.8878 6.41212 12.3876 8.23914 12.3876C10.0662 12.3876 11.5474 10.889 11.5474 9.03852Z" fill="white"/>
<path d="M18.5 13.3292C18.5 16.4721 16.0135 19 12.9705 19C9.92744 19 7.44092 16.4721 7.44092 13.3292C7.44092 10.1863 9.92744 7.65841 12.9705 7.65841C16.0135 7.65841 18.5 10.1863 18.5 13.3292Z" fill="white" stroke="#5F5F5F"/>
<path d="M13.5293 14.4799V15.4606L16.1629 13.3615L13.5293 11.2525V12.2359V12.9026H12.8626H9.71098V13.8132H12.8626H13.5293V14.4799Z" fill="#5F5F5F" stroke="#5F5F5F" stroke-width="1.33333"/>
</svg>
