<svg width="20" height="20" viewBox="0 0 20 20" fill="none" xmlns="http://www.w3.org/2000/svg">
<path fill-rule="evenodd" clip-rule="evenodd" d="M13.079 13.367C13.45 13.017 13.947 12.8 14.5 12.8C15.662 12.8 16.6 13.738 16.6 14.9C16.6 16.062 15.662 17 14.5 17C13.338 17 12.4 16.062 12.4 14.9C12.4 14.732 12.428 14.571 12.463 14.417L7.528 11.533C7.15 11.883 6.653 12.1 6.1 12.1C4.938 12.1 4 11.162 4 10C4 8.838 4.938 7.9 6.1 7.9C6.653 7.9 7.15 8.117 7.528 8.467L12.463 5.59C12.428 5.436 12.4 5.268 12.4 5.1C12.4 3.938 13.338 3 14.5 3C15.662 3 16.6 3.938 16.6 5.1C16.6 6.262 15.662 7.2 14.5 7.2C13.947 7.2 13.443 6.983 13.072 6.633L8.137 9.51C8.172 9.671 8.2 9.832 8.2 10C8.2 10.168 8.172 10.329 8.137 10.49L13.079 13.367ZM15.2 5.1C15.2 4.715 14.885 4.4 14.5 4.4C14.115 4.4 13.8 4.715 13.8 5.1C13.8 5.485 14.115 5.8 14.5 5.8C14.885 5.8 15.2 5.485 15.2 5.1ZM6.1 10.7C5.715 10.7 5.4 10.385 5.4 10C5.4 9.615 5.715 9.3 6.1 9.3C6.485 9.3 6.8 9.615 6.8 10C6.8 10.385 6.485 10.7 6.1 10.7ZM13.8 14.9C13.8 15.285 14.115 15.6 14.5 15.6C14.885 15.6 15.2 15.285 15.2 14.9C15.2 14.515 14.885 14.2 14.5 14.2C14.115 14.2 13.8 14.515 13.8 14.9Z" fill="#5F5F5F"/>
</svg>
