<svg width="20" height="20" viewBox="0 0 20 20" fill="none" xmlns="http://www.w3.org/2000/svg">
<path d="M10.5648 13.4999L10.5651 13.4987C10.7182 13.0378 11.1356 12.7282 11.62 12.7282H13.2601C15.1647 12.7282 16.7001 11.1887 16.7001 9.27797L16.7002 7.75364C16.7002 5.84301 15.1647 4.30344 13.2601 4.30344H6.74006C4.83558 4.30344 3.3 5.84301 3.3 7.75364V9.27797C3.3 11.1893 4.83593 12.7276 6.71906 12.708L6.7201 12.708C7.07205 12.708 7.38099 12.8636 7.59938 13.1483L7.5994 13.1483C7.81804 13.4336 7.88444 13.7861 7.79685 14.1166C7.79678 14.1169 7.79671 14.1171 7.79665 14.1174L7.7 14.0917C7.55258 14.6831 7.35421 15.1894 7.10493 15.6262L10.5648 13.4999ZM10.5648 13.4999C10.3359 14.2173 9.7813 14.7064 9.11289 15.0403C8.51335 15.3399 7.83004 15.5103 7.23038 15.6069L10.5648 13.4999ZM6.73993 17.1V17.1005L6.75028 17.0995C7.52542 17.0188 8.58772 16.8317 9.56192 16.3814C10.5182 15.9394 11.3973 15.2398 11.829 14.1317H13.26C15.9355 14.1317 18.1 11.9604 18.1 9.27808V7.75375C18.1 5.07131 15.9355 2.9 13.2601 2.9H6.74003C4.06455 2.9 1.9 5.07109 1.9 7.75361V9.27793C1.9 11.8156 3.8553 13.9177 6.34862 14.1227C6.19534 14.6174 5.99347 15.011 5.75932 15.3362C5.4956 15.6896 5.47379 16.1736 5.69322 16.5483C5.89141 16.9011 6.24502 17.1 6.6399 17.1H6.73993Z" fill="#5F5F5F" stroke="#5F5F5F" stroke-width="0.2"/>
</svg>
