<svg width="13" height="14" viewBox="0 0 13 14" fill="none" xmlns="http://www.w3.org/2000/svg">
<path d="M12.49 11.109C12.1639 10.3793 11.6906 9.71645 11.0966 9.15741C10.5044 8.59676 9.80293 8.14976 9.03084 7.84108C9.02392 7.83781 9.017 7.83618 9.01009 7.83291C10.0871 7.09799 10.7872 5.90088 10.7872 4.55025C10.7872 2.31281 8.86834 0.5 6.5 0.5C4.13166 0.5 2.21279 2.31281 2.21279 4.55025C2.21279 5.90088 2.91292 7.09799 3.98991 7.83455C3.983 7.83781 3.97608 7.83945 3.96917 7.84271C3.1947 8.15138 2.49976 8.59397 1.90336 9.15905C1.3099 9.71851 0.836747 10.3813 0.510013 11.1107C0.18903 11.8248 0.0159161 12.5904 4.32282e-05 13.3661C-0.000418174 13.3835 0.00281802 13.4009 0.00956122 13.4171C0.0163044 13.4333 0.0264181 13.4481 0.0393064 13.4606C0.0521947 13.4731 0.0675968 13.483 0.0846052 13.4898C0.101614 13.4965 0.119884 13.5 0.13834 13.5H1.17557C1.25163 13.5 1.31214 13.4428 1.31386 13.3726C1.34844 12.1118 1.88434 10.931 2.83167 10.0361C3.81185 9.11005 5.11357 8.6005 6.5 8.6005C7.88643 8.6005 9.18815 9.11005 10.1683 10.0361C11.1157 10.931 11.6516 12.1118 11.6861 13.3726C11.6879 13.4445 11.7484 13.5 11.8244 13.5H12.8617C12.8801 13.5 12.8984 13.4965 12.9154 13.4898C12.9324 13.483 12.9478 13.4731 12.9607 13.4606C12.9736 13.4481 12.9837 13.4333 12.9904 13.4171C12.9972 13.4009 13.0004 13.3835 13 13.3661C12.9827 12.5854 12.8115 11.826 12.49 11.109ZM6.5 7.3593C5.70652 7.3593 4.95972 7.06696 4.39789 6.53618C3.83605 6.0054 3.52662 5.29987 3.52662 4.55025C3.52662 3.80063 3.83605 3.0951 4.39789 2.56432C4.95972 2.03354 5.70652 1.74121 6.5 1.74121C7.29348 1.74121 8.04028 2.03354 8.60211 2.56432C9.16395 3.0951 9.47338 3.80063 9.47338 4.55025C9.47338 5.29987 9.16395 6.0054 8.60211 6.53618C8.04028 7.06696 7.29348 7.3593 6.5 7.3593Z" fill="#FAFAFA"/>
</svg>
