<svg width="24" height="26" viewBox="0 0 24 26" fill="none" xmlns="http://www.w3.org/2000/svg">
<g filter="url(#filter0_d_4155_155615)">
<path d="M18.0972 13.6699C17.6083 13.1806 17.0371 12.7813 16.4097 12.4902C17.2945 11.7734 17.8589 10.6797 17.8589 9.45309C17.8589 7.28903 16.0542 5.51364 13.8902 5.54684C11.7593 5.58005 10.0425 7.31638 10.0425 9.45309C10.0425 10.6797 10.6089 11.7734 11.4917 12.4902C10.8642 12.7811 10.293 13.1804 9.80425 13.6699C8.73784 14.7383 8.13237 16.1484 8.09331 17.6523C8.09279 17.6732 8.09645 17.6939 8.10406 17.7133C8.11168 17.7327 8.12311 17.7504 8.13767 17.7653C8.15223 17.7803 8.16963 17.7921 8.18885 17.8002C8.20807 17.8083 8.22871 17.8125 8.24956 17.8125H9.34331C9.4273 17.8125 9.49761 17.7461 9.49956 17.6621C9.53667 16.5293 9.99566 15.4687 10.8023 14.664C11.2151 14.2491 11.706 13.9201 12.2468 13.6961C12.7876 13.4722 13.3674 13.3577 13.9527 13.3593C15.1421 13.3593 16.2613 13.8222 17.1031 14.664C17.9078 15.4687 18.3667 16.5293 18.4058 17.6621C18.4078 17.7461 18.4781 17.8125 18.5621 17.8125H19.6558C19.6767 17.8125 19.6973 17.8083 19.7165 17.8002C19.7357 17.7921 19.7531 17.7803 19.7677 17.7653C19.7823 17.7504 19.7937 17.7327 19.8013 17.7133C19.8089 17.6939 19.8126 17.6732 19.8121 17.6523C19.773 16.1484 19.1675 14.7383 18.0972 13.6699ZM13.9527 11.9531C13.2847 11.9531 12.6558 11.6933 12.1851 11.2207C11.9489 10.9863 11.7623 10.7068 11.6365 10.3987C11.5106 10.0907 11.4481 9.76043 11.4527 9.4277C11.4585 8.78708 11.7144 8.16794 12.1617 7.70895C12.6304 7.22849 13.2574 6.96091 13.9273 6.95309C14.5894 6.94724 15.232 7.20505 15.7046 7.66794C16.189 8.14255 16.4546 8.77731 16.4546 9.45309C16.4546 10.1211 16.1949 10.748 15.7222 11.2207C15.4903 11.4537 15.2145 11.6384 14.9108 11.7641C14.6071 11.8898 14.2814 11.9541 13.9527 11.9531ZM9.06011 9.96872C9.04253 9.7988 9.03276 9.62692 9.03276 9.45309C9.03276 9.14255 9.06206 8.83981 9.11675 8.54489C9.13042 8.47458 9.09331 8.40231 9.02886 8.37302C8.76323 8.25388 8.51909 8.08981 8.30815 7.88278C8.0596 7.64178 7.86401 7.35161 7.73387 7.0308C7.60372 6.70998 7.54188 6.36555 7.55229 6.0195C7.56987 5.39255 7.82183 4.79684 8.26128 4.34763C8.7437 3.85349 9.39214 3.58395 10.0816 3.59177C10.7046 3.59763 11.3062 3.83786 11.7613 4.26364C11.9156 4.40817 12.0484 4.56833 12.1597 4.7402C12.1988 4.80075 12.275 4.82614 12.3414 4.8027C12.6851 4.68356 13.0484 4.59958 13.4214 4.56052C13.5308 4.5488 13.5933 4.43161 13.5445 4.33395C12.9097 3.07809 11.6128 2.21091 10.1128 2.18747C7.94683 2.15427 6.14214 3.92966 6.14214 6.09177C6.14214 7.31833 6.70659 8.41208 7.59136 9.12888C6.97026 9.41599 6.398 9.81247 5.9019 10.3086C4.83159 11.3769 4.22612 12.7871 4.18706 14.2929C4.18654 14.3138 4.1902 14.3345 4.19781 14.3539C4.20543 14.3733 4.21686 14.391 4.23142 14.406C4.24598 14.4209 4.26338 14.4327 4.2826 14.4408C4.30182 14.4489 4.32246 14.4531 4.34331 14.4531H5.43901C5.523 14.4531 5.59331 14.3867 5.59526 14.3027C5.63237 13.1699 6.09136 12.1093 6.898 11.3047C7.47222 10.7304 8.17534 10.332 8.94292 10.1386C9.01909 10.1191 9.06987 10.0468 9.06011 9.96872Z" fill="#FAFAFA"/>
</g>
<defs>
<filter id="filter0_d_4155_155615" x="-2" y="0" width="28" height="28" filterUnits="userSpaceOnUse" color-interpolation-filters="sRGB">
<feFlood flood-opacity="0" result="BackgroundImageFix"/>
<feColorMatrix in="SourceAlpha" type="matrix" values="0 0 0 0 0 0 0 0 0 0 0 0 0 0 0 0 0 0 127 0" result="hardAlpha"/>
<feOffset dy="4"/>
<feGaussianBlur stdDeviation="2"/>
<feComposite in2="hardAlpha" operator="out"/>
<feColorMatrix type="matrix" values="0 0 0 0 0 0 0 0 0 0 0 0 0 0 0 0 0 0 0.25 0"/>
<feBlend mode="normal" in2="BackgroundImageFix" result="effect1_dropShadow_4155_155615"/>
<feBlend mode="normal" in="SourceGraphic" in2="effect1_dropShadow_4155_155615" result="shape"/>
</filter>
</defs>
</svg>
