<svg width="20" height="20" viewBox="0 0 20 20" fill="none" xmlns="http://www.w3.org/2000/svg">
<path d="M6.85 7.5C6.85 9.51536 8.48447 11.15 10.5 11.15C12.5154 11.15 14.15 9.51553 14.15 7.5C14.15 5.48464 12.5155 3.85 10.5 3.85C8.48464 3.85 6.85 5.48447 6.85 7.5ZM12.937 7.5C12.937 8.84753 11.8477 9.93693 10.5001 9.93693C9.15253 9.93693 8.06313 8.84762 8.06313 7.5C8.06313 6.15247 9.15243 5.06307 10.5001 5.06307C11.8476 5.06307 12.937 6.15238 12.937 7.5Z" fill="#5F5F5F" stroke="#5F5F5F" stroke-width="0.3"/>
<path d="M5.0331 13.2431L5.03275 13.2435C4.27016 14.1744 3.85 15.353 3.85 16.548C3.85 16.8875 4.11409 17.15 4.45348 17.15C4.79287 17.15 5.05696 16.8875 5.05696 16.548C5.05696 15.618 5.37768 14.7175 5.96022 14.0063C6.65848 13.154 7.84696 12.8207 9.00264 13.1951L9.00294 13.1952C9.97003 13.5062 11.03 13.5062 11.9971 13.1952L11.9979 13.1949C13.1383 12.8208 14.3266 13.1392 15.0399 14.0064C15.6223 14.7176 15.943 15.6181 15.943 16.548C15.943 16.8875 16.2071 17.15 16.5465 17.15C16.8859 17.15 17.15 16.8875 17.15 16.548C17.15 15.353 16.7298 14.1744 15.9673 13.2435L15.9669 13.2431C14.9424 12.0023 13.2291 11.5359 11.6176 12.0658C10.8919 12.2971 10.093 12.2972 9.36722 12.0659C7.77023 11.5357 6.0572 12.0026 5.0331 13.2431Z" fill="#5F5F5F" stroke="#5F5F5F" stroke-width="0.3"/>
</svg>
