<svg width="17" height="15" viewBox="0 0 17 15" fill="none" xmlns="http://www.w3.org/2000/svg">
<path d="M16.9903 8.13587L16.2619 4.83919C16.2607 4.83436 16.2581 4.82981 16.2568 4.82469C16.2518 4.80435 16.2443 4.78457 16.2358 4.76481C16.2317 4.75542 16.2281 4.74589 16.2232 4.73664C16.2212 4.7328 16.2199 4.72854 16.218 4.72455C16.2072 4.70578 16.1942 4.68942 16.1813 4.67321C16.1782 4.66951 16.1768 4.66553 16.1738 4.66197L16.1704 4.65785C16.1703 4.6577 16.17 4.65742 16.1699 4.65728L13.7413 1.81604C13.7046 1.77309 13.6594 1.73838 13.6086 1.71392L10.3824 0.164274C10.3779 0.162283 10.373 0.161145 10.3687 0.159439C10.3551 0.153465 10.3409 0.148629 10.3269 0.144362C10.3156 0.140948 10.3046 0.137392 10.2932 0.134974C10.2786 0.131703 10.2636 0.130139 10.2487 0.128432C10.2408 0.127578 10.2333 0.125303 10.2254 0.125018L7.38718 0.000421245C7.3466 -0.00142777 7.30757 0.00283911 7.26897 0.0126533L3.38479 1.01055C3.37955 1.01197 3.37503 1.0151 3.3698 1.01667C3.34364 1.02435 3.31889 1.03445 3.29556 1.04682C3.2875 1.05109 3.28001 1.05564 3.27223 1.06033C3.24734 1.07584 3.22444 1.09361 3.20365 1.11381C3.20125 1.11609 3.19813 1.11751 3.19573 1.11993L0.114849 4.27565C0.109759 4.28077 0.106365 4.28703 0.10184 4.29244C0.0891138 4.30694 0.0765286 4.32202 0.0657821 4.33852C0.0595602 4.34805 0.0546115 4.35829 0.0490965 4.36825C0.0434404 4.37891 0.0365114 4.38844 0.0318453 4.39939C0.0298657 4.40423 0.0290174 4.40935 0.027179 4.41433C0.0229368 4.42557 0.0196846 4.4368 0.0164321 4.44832C0.0117657 4.46482 0.00752374 4.48118 0.00483704 4.49768C0.00328159 4.50863 0.00215055 4.51972 0.00116083 4.53096C-0.000111795 4.54874 -0.00039462 4.56609 0.000595213 4.58373C0.000736607 4.5897 -0.000253198 4.59553 0.000453809 4.60151L0.32271 7.89789C0.337699 8.05179 0.438237 8.18392 0.582045 8.23897L3.32541 9.28893L4.96158 11.9336C4.96426 11.9379 4.96822 11.941 4.97091 11.9453C4.97501 11.9514 4.97784 11.9581 4.98222 11.9641C4.98986 11.9743 4.99947 11.9816 5.00781 11.9909C5.01771 12.0019 5.02733 12.013 5.03822 12.0228C5.05306 12.0359 5.06876 12.0467 5.08502 12.0575C5.09591 12.0646 5.10637 12.0724 5.11811 12.0787C5.13692 12.0887 5.15685 12.0956 5.17707 12.1023C5.18782 12.1061 5.198 12.1108 5.20917 12.1137C5.24014 12.1214 5.27182 12.1259 5.30363 12.1261C5.30448 12.1261 5.30505 12.1262 5.30589 12.1262H8.23774L10.75 14.8684C10.8285 14.9539 10.9371 15 11.0483 15C11.0997 15 11.1519 14.9902 11.2013 14.9698C11.3579 14.9056 11.4588 14.7502 11.4534 14.5801L11.3862 12.3281L11.8125 11.2601L14.6682 11.6161C14.8267 11.6369 14.9769 11.5629 15.0609 11.4294L16.9374 8.44278C16.9943 8.35119 17.0137 8.2411 16.9903 8.13584L16.9903 8.13587ZM13.1821 2.41269L14.8592 4.37509L10.9529 3.65283L10.6611 1.20174L13.1821 2.41269ZM10.597 4.41645L14.6419 5.16431L9.72062 8.0077L10.597 4.41645ZM10.1612 3.86245L6.0334 5.46515L9.87559 1.4646L10.1612 3.86245ZM8.83287 8.22602L5.64266 6.49093L9.63435 4.94129L8.83287 8.22602ZM7.41161 0.81771L9.29057 0.900347L4.82069 5.55375L3.96646 1.70286L7.41161 0.81771ZM3.25159 2.22666L4.0201 5.69002L1.10704 4.42315L3.25159 2.22666ZM1.10494 7.56642L0.874455 5.21077L4.06962 6.60053L3.36456 8.43135L1.10494 7.56642ZM4.04838 8.91395L4.80063 6.96079L8.35326 8.89316L5.41533 11.1235L4.04838 8.91395ZM8.71337 11.4416C8.63659 11.3578 8.52856 11.31 8.41515 11.31H6.51567L8.75452 9.61002L8.93071 10.0534L8.92944 10.0538L9.92662 12.7662L8.71337 11.4416ZM14.5125 10.7747L11.6023 10.412C11.4196 10.3876 11.2446 10.4929 11.1759 10.6646L10.6019 12.1031C10.591 12.1307 10.5835 12.159 10.5788 12.1879L9.75625 9.95072L9.76247 9.94802L9.49126 9.26603L15.26 9.58477L14.5125 10.7747ZM15.7561 8.79535L10.4895 8.50435L15.5896 5.55755L16.162 8.14875L15.7561 8.79535Z" fill="#155BCD"/>
</svg>
